<svg xmlns="http://www.w3.org/2000/svg" fill="none" viewBox="19.594 16.362000000000002 64.438 65.044" style="max-height: 500px" width="64.438" height="65.044">
<g clip-path="url(#clip0_1_66)">
<rect fill="white" transform="rotate(-45 9.10407 49.997)" rx="29" height="58" width="58" y="49.997" x="9.10407"/>
<circle fill="white" transform="rotate(-45 50.1163 49.997)" r="29" cy="49.997" cx="50.1163"/>
<g filter="url(#filter0_f_1_66)">
<rect fill="#DE85BE" transform="rotate(-134 20.4495 45.9723)" height="35.6251" width="6.17743" y="45.9723" x="20.4495"/>
<rect fill="#F7E014" transform="rotate(-134 19.576 56.3308)" height="54.0228" width="6.93783" y="56.3308" x="19.576"/>
<rect fill="#F7E014" transform="rotate(-134 37.6998 82.8362)" height="66.3535" width="5.7883" y="82.8362" x="37.6998"/>
<rect fill="#5281CB" transform="rotate(-134 22.388 59.1428)" height="54.0228" width="3.97623" y="59.1428" x="22.388"/>
<rect fill="#5281CB" transform="rotate(-134 24.9275 78.5484)" height="78.2309" width="6.35113" y="78.5484" x="24.9275"/>
<rect fill="#5281CB" transform="rotate(-134 36.2954 88.4048)" height="78.2309" width="3.19467" y="88.4048" x="36.2954"/>
<rect fill="#D982C4" transform="rotate(-134 21.0444 66.2268)" height="66.3865" width="4.20769" y="66.2268" x="21.0444"/>
<rect fill="#D982C4" transform="rotate(-134 33.6075 78.8413)" height="66.3865" width="6.57107" y="78.8413" x="33.6075"/>
<rect fill="#4FC4E0" transform="rotate(-134 23.2962 71.8845)" height="71.1755" width="5.70353" y="71.8845" x="23.2962"/>
<rect fill="#4FC4E0" transform="rotate(-134 46.8455 94.9668)" height="71.1755" width="12.1508" y="94.9668" x="46.8455"/>
</g>
</g>
<rect fill="#DE85BE" transform="rotate(-134.006 21.4548 63.7678)" rx="0.5" height="64.0041" width="1" y="63.7678" x="21.4548"/>
<rect fill="#D982C4" transform="rotate(-135 20.369 40.4853)" rx="0.5" height="11" width="1" y="40.4853" x="20.369"/>
<rect fill="#F7E014" transform="rotate(-135 51.369 25.4853)" rx="0.5" height="11" width="1" y="25.4853" x="51.369"/>
<rect fill="#F7E014" transform="rotate(-135 35.9741 81.1097)" rx="0.5" height="11" width="1" y="81.1097" x="35.9741"/>
<rect fill="#F7E014" transform="rotate(-135 76.9863 44.3402)" rx="0.5" height="6.60679" width="1" y="44.3402" x="76.9863"/>
<rect fill="#D982C4" transform="rotate(-135 70.369 39.4853)" rx="0.5" height="11" width="1" y="39.4853" x="70.369"/>
<rect fill="#4FC4E0" transform="rotate(-135 77.6934 52.1184)" rx="0.5" height="7.46721" width="1" y="52.1184" x="77.6934"/>
<rect fill="#4FC4E0" transform="rotate(-135 22.7954 69.167)" rx="0.453186" height="9.76632" width="0.906371" y="69.167" x="22.7954"/>
<rect fill="#5281CB" transform="rotate(-135 26.369 76.4853)" rx="0.5" height="11" width="1" y="76.4853" x="26.369"/>
<circle fill="white" transform="rotate(-0.621849 50.1163 49.9971)" r="25" cy="49.9971" cx="50.1163"/>
<path fill="black" d="M39.0735 46.1167C44.0438 46.0628 48.1167 50.0482 48.1707 55.0185C48.1957 57.3237 47.351 59.4353 45.9429 61.043L51.7356 60.9802C52.5639 60.9712 53.2428 61.6354 53.2518 62.4638C53.2607 63.2922 52.5965 63.971 51.7681 63.98L39.2689 64.1156C34.2986 64.1696 30.2257 60.1841 30.1717 55.2138C30.1178 50.2436 34.1032 46.1706 39.0735 46.1167ZM39.2037 58.116C38.0992 58.128 37.2136 59.0331 37.2256 60.1376C37.2376 61.2421 38.1427 62.1277 39.2472 62.1158C40.3517 62.1038 41.2373 61.1987 41.2253 60.0942C41.2133 58.9897 40.3082 58.104 39.2037 58.116ZM66.4018 35.8195C68.4425 35.7973 69.474 36.7862 69.4957 38.7861L69.6748 55.2851C69.7019 57.785 69.2023 58.7905 66.6515 58.8181L50.3262 58.9953C52.291 51.9736 49.1702 46.5071 44.5623 45.0571L44.4918 38.5574C44.4755 37.0576 44.9748 36.0521 47.0153 36.0299L66.4018 35.8195ZM53.2029 57.964L57.2027 57.9206L57.1701 54.9208L53.1704 54.9642L53.2029 57.964ZM58.2026 57.9098L62.2024 57.8664L62.1698 54.8665L58.1701 54.91L58.2026 57.9098ZM63.2023 57.8555L67.2021 57.8121L67.1695 54.8123L63.1698 54.8557L63.2023 57.8555ZM34.1498 53.1706C33.0453 53.1825 32.1596 54.0876 32.1716 55.1921C32.1836 56.2966 33.0887 57.1823 34.1932 57.1703C35.2977 57.1583 36.1833 56.2532 36.1714 55.1487C36.1594 54.0442 35.2543 53.1586 34.1498 53.1706ZM44.1492 53.062C43.0447 53.074 42.159 53.9791 42.171 55.0836C42.183 56.1881 43.0881 57.0738 44.1926 57.0618C45.2971 57.0498 46.1828 56.1447 46.1708 55.0402C46.1588 53.9357 45.2537 53.05 44.1492 53.062ZM39.0952 48.1166C37.9907 48.1286 37.105 49.0337 37.117 50.1382C37.129 51.2427 38.0341 52.1283 39.1386 52.1163C40.2431 52.1044 41.1288 51.1993 41.1168 50.0948C41.1048 48.9903 40.1997 48.1046 39.0952 48.1166ZM55.282 43.6438C54.6049 43.2775 53.7851 43.782 53.8064 44.5514L53.9702 50.466C53.9915 51.2355 54.8382 51.6935 55.4939 51.2904L60.5348 48.1905C61.1904 47.7873 61.1637 46.8258 60.4867 46.4595L55.282 43.6438ZM46.0188 41.041L50.0186 40.9976L49.986 37.9978L45.9863 38.0412L46.0188 41.041ZM52.0185 40.9759L56.0182 40.9325L55.9857 37.9327L51.9859 37.9761L52.0185 40.9759ZM58.0181 40.9108L62.0179 40.8674L61.9853 37.8675L57.9856 37.911L58.0181 40.9108ZM64.0178 40.8457L68.0175 40.8023L67.985 37.8024L63.9852 37.8458L64.0178 40.8457Z"/>
<defs>
<filter color-interpolation-filters="sRGB" filterUnits="userSpaceOnUse" height="82.1541" width="84.2883" y="13.3128" x="14.2566" id="filter0_f_1_66">
<feFlood result="BackgroundImageFix" flood-opacity="0"/>
<feBlend result="shape" in2="BackgroundImageFix" in="SourceGraphic" mode="normal"/>
<feGaussianBlur result="effect1_foregroundBlur_1_66" stdDeviation="0.25"/>
</filter>
<clipPath id="clip0_1_66">
<rect fill="white" transform="rotate(-45 9.10407 49.997)" rx="29" height="58" width="58" y="49.997" x="9.10407"/>
</clipPath>
</defs>
</svg>